<svg width="121" height="121" viewBox="0 0 121 121" fill="none" xmlns="http://www.w3.org/2000/svg">
<path d="M60.1173 33.4922H0C0 14.9949 14.9947 0.000190188 33.492 0.000190188H60.1173V33.4922Z" fill="#710FD8"/>
<path d="M120.234 33.4922H69.0996C69.0996 14.9949 84.0956 0.000190188 102.593 0.000190188H120.234V33.4922Z" fill="#25D838"/>
<path d="M86.7429 76.7803H69.1016V43.2883H120.236C120.236 61.7856 105.24 76.7803 86.7429 76.7803Z" fill="#25D838"/>
<path d="M86.7418 120.066H42.7578V86.5744H120.235C120.235 105.072 105.239 120.066 86.7418 120.066Z" fill="#710FD8"/>
<path d="M60.1173 43.2887H0V66.9007V76.7807V88.1741C0 105.789 14.2787 120.067 31.8933 120.067H33.492V76.7807H60.1173V43.2887Z" fill="#710FD8"/>
</svg>
